<svg id="Layer_1" data-name="Layer 1" xmlns="http://www.w3.org/2000/svg" xmlns:xlink="http://www.w3.org/1999/xlink" viewBox="0 0 502 101"><defs><style>.cls-1{fill:none;}.cls-2{clip-path:url(#clip-path);}.cls-3{fill:#eeb111;}.cls-4{fill:#b5121b;}</style><clipPath id="clip-path"><rect class="cls-1" width="502" height="101"/></clipPath></defs><title>Questar III</title><g class="cls-2"><path class="cls-3" d="M317.54,1.67c.3,1.31,1.61.1,2.21,1.31.3,1.21-.71,2.11-.6,3.32-1.21,1,.4,2.41-.91,3.42-.1,1.21.7,2.71-.7,3.42-.2.9,0,2.31-.6,3.22,0,.7-.6,1.11-.3,1.91a8.88,8.88,0,0,0-.7,2.81.76.76,0,0,0-.6.8.72.72,0,0,0,.6.3c-.1.2-.1.5-.3.6h-.5c.1,1-.71,2-.2,3.12a1.44,1.44,0,0,0-.2.6c1.61.1.4,1.71.8,2.51.1-.1-.8-.7-.8.1.1.6-.4,1.71.6,1.81l-.1.6a1.43,1.43,0,0,0-.6-.2.75.75,0,0,0,0,.9c2,1.81,3.92-.8,6-1,2.21-.9,4.73-1.81,7.14-2.71,1.51-.3,2.82-.6,4.32-.9.8.7,2-.6,2.81.3a3.59,3.59,0,0,0,1.81,1.41c.8.5,2.61-.7,2.71.8-1.31.5-2.61.7-3.82,1.11l-.4.3c.1.2.4.2.6.2v1.71c.6.1,1.21-.1,1.51.6.1,1.11-.91,2-1.51,2.81-2.62,2.11-4.12,4.42-6.44,6.64-.6.3-.5,1.11-.91,1.61a19.49,19.49,0,0,0-5.73,6.44c-2.21,1.51-3.42,3.82-5.13,5.63-.4.6-1.21.91-1.51,1.41-.8,1.41-2.81,2.31-2.71,4.12.2.3.6.3,1.11.2,1.31-1.51,3.12-2.41,4.42-3.82.5-1.81,2.82-1.71,3.22-3.52.7-.6,1.51-1.41,2.21-2.11.2-.1.2.1.3.2-.7,1.41-2.31,2.31-2.92,3.82-1.91.9-2.31,3.32-4.22,4.22-1.21,1.91-3.32,2.92-4.32,4.93a8.07,8.07,0,0,0-.1,3.12c-.4,1.11.6,2.21-.2,3.22.8,1.51-.2,3.22.2,4.73.1,2.71.2,4.83.2,7.54.1,2.11.6,3.82.4,5.73.5,1.41.3,3.12,1.31,4.32.5,1.81-2.41.6-2.21,2.31.7,1.11-1.21.8-.7,1.91-.3,0-.4.2-.7.1l-.1,1.21c-.6-.1-1.51.3-1.61-.4.3-1.81-1.21-3.12-1.21-4.83-1-1.81-.3-4.52-2.31-5.83a21.2,21.2,0,0,0-1.11-5.93,36.66,36.66,0,0,0-3.92-10,1.17,1.17,0,0,0-1,0c-.8,1-1.81,1.51-2.41,2.61-1.11.4-1.81,1.81-3,1.61-.7,1.21-2.21,1.81-3.22,2.61a1.83,1.83,0,0,1-1.31,1c-.8,1-2,1.61-2,2.92,0,.7.5,1.11.2,1.81-1.61.91-.8,2.61-1.11,4-.4.2-1.41.5-1.61-.3-.1-1.41.7-2.92.4-4.52-.5-.3-1.11.4-1.61.6-1.11,1.11-2.21,2.41-2.31,3.82.1.5.8,1,.4,1.51-.6.2-.8.8-1.31,1-.3.2-.2.5-.6.3-.5-.9-1.11.3-1.71.1-1,0-2.11-.4-2.61.7-1,1.21-3.12.3-3.52,2-.91.8-1.31,2.61-2.72,2.51-.9-1.21,1.11-2,1.41-2.92-.1-.2-.1-.4-.3-.4-1.61-.2-1.61,3.12-3.22,1.51-.1-.6.71-1.11.71-1.71-2.11,1.51-2.72,3.92-4.73,5.33-.6.1-1-.1-1-.7.3-.91,1.21-1.51,1.71-2.31a26.19,26.19,0,0,1,5.43-5.13c.71-1.11,2.21-1.11,2.92-2.41.6-2.11,2.51-3.82,2.92-6.23.7-.4.6-1.21.91-1.71a42.14,42.14,0,0,0,2.41-6.23A16.16,16.16,0,0,0,280.94,71c1-2,1.41-4,2.31-6.13.1-.6-.7-.8-1.11-1.21-3.32-.3-6.54.7-9.65.2-1.91-.4-3.72-.8-5.13-2.41a10.4,10.4,0,0,1,.2-3c1.31-1.31,2.21-2.71,3.62-3.92-.3-.3-1.21-.5-.8-1.11.7-1.61,2.21-1.51,3.32-2.72,1.11-.1,2.11-1.41,3.32-1.41.8-1,2.31-.6,3.12-1.71a3.35,3.35,0,0,0,2.11-1.11c1.51-.8,3.12-1,4.73-1.71,1.11-1.21,3-1.51,4.42-2.31.2-.3,0-.91.5-1.11.4-2.31,1.41-4.32,1.71-6.64.7-.6.1-1.81,1.11-2.41.4-2.11,1-4.22,1.51-6.23.91-1.91,1.31-3.92,2.11-5.83-.1-.6.5-1.11.9-1.71A16.4,16.4,0,0,1,302,12.23c-.4-.8.4-1.11.5-1.71l1.71-3.62c.8-.7,1.41-2.21,2.71-1.91.3.2.71.7.2,1-1.71.7-2.41,2.82-2.92,4.52-1.71,1.51-1.91,3.72-2.92,5.63-.1.5-.8.6-.8,1.21.3.7-.3,1.21-.6,1.71-.3,2-1.61,3.62-1.81,5.63S296.12,28,296.12,30c-1.21,2.21-1.51,4.63-2.51,6.94a4.86,4.86,0,0,0-.3,2.41,25.8,25.8,0,0,0,1.81-3.32,18.56,18.56,0,0,1,1.51-3.52c.5-.3.4-.8.6-1.31A58.81,58.81,0,0,1,300,25.61c3.32-6,6.74-12.07,10.06-18.1l.1-.5c1.41-2,2.41-4.12,3.72-6.23L315,.27c1,.1,1.51,1.11,2.51,1.41Zm-8.65,20.91a7,7,0,0,1-.3,2c-.1,1,.2,2.31-.2,3.12-1,.4-.2,1.81-.7,2.61.2.2.1.7.6.6a2.56,2.56,0,0,0-.2,2.41c-.7.7-.2,1.91-.2,2.71a6.13,6.13,0,0,0,1.31-.3c.2-2,.2-3.82.4-5.63-.2-2.71.5-5.13.2-7.54.1-.91-.9-.5-.9,0Zm-2.31,6a6.92,6.92,0,0,0-1,1.91c.1,1.41-.7,2.51-1.11,3.72,0,1.41-1.11,2.31-1.21,3.72a.45.45,0,0,0,.5,0c1.11-.5,2.51-.7,3.22-1.91-1-1.61.5-2.92-.2-4.42a4.51,4.51,0,0,0-.2-3Zm26.14,3.92A32.48,32.48,0,0,0,327,35.16c-2,.2-3.32,2.21-5.33,2.71-1.41,1.31-3.22,1.71-4.73,2.61a2.35,2.35,0,0,0-2,1c-1.31-.4-.5,1.11-1.11,1.61.2.5.7.8.91,1.21-.2.3-.5.3-.7.5-.4.2-.1.8.3,1,.5.6-.2,1.21-.5,1.71,0,1.21-.8,2.51-.3,3.82a4.51,4.51,0,0,0,0,2.31l.91-.4c4.12-4.73,8-9.55,12.57-13.88,2-2.51,4.73-3.92,6.74-6.74l-1-.1Zm-8.95,1.91c-.6,1-2,.1-2.31,1.21a1.33,1.33,0,0,0,1.21-.2c.4-.7,1.61-.4,2.21-.91a5.06,5.06,0,0,0,1.41-1,25.18,25.18,0,0,0-2.51.9ZM318.24,38c-1,.7-2.41.4-3,1.51a17.47,17.47,0,0,0,3.92-1.11,1,1,0,0,0-.91-.4ZM306.48,42.8c-.8.3-1.71.8-1.81,1.51A2.5,2.5,0,0,0,306.88,43c-.1-.2-.4-.2-.4-.2Zm2,1.41c-.3.2-1.11.2-.7.91-.6.7.3,1.11.1,1.91-.1.3-.1.8-.5.8-.1-.5-.5-1.51,0-2.11-.3,0-.3-.5-.5-.7-2.61.5-4.72,2.11-7,3.42-1,1.41-1.11,3.12-1.91,4.63-.5,1.51-1,3-1.61,4.42-.2,0-.4.1-.5-.1s.2-.4.3-.7c-.3-.91,1-1.11.5-2,1.41-.8-.6-1.91.6-2.82,0-.8,1.31-1.31.6-2.21l-.9.6c-.71,2.61-2.62,4.73-2.62,7.54-1.11,1-.2,2.71-1.41,3.62,0,.4,0,1,.5,1.11a1,1,0,0,0,1.31-.4,1.19,1.19,0,0,1,.1.8,13.71,13.71,0,0,0,4.12,2.82c.3.8,1.41.9,1.61,1.71a53,53,0,0,0,7.24-7v-.7c.7-1.11.1-2.41,0-3.42a2.86,2.86,0,0,0,.1-1.81c.6-1.61.2-3.72.6-5.33a3.87,3.87,0,0,1,.1-2.82c-.1-.7.3-1.61-.1-2.11Zm-4.93.1a11.12,11.12,0,0,0-3.22,1.81c.6.8.9-.5,1.71-.3.6-.6,1.71-.6,2.11-1.41l-.6-.1Zm-16.19,8.75c-1.51.7-3,1.21-4.42,2-2.21,1.61-5.23,2.21-7.14,4.42l.2.1c2.51.2,5.63-.3,8.55,0,1.31-.8,1.31-2.41,1.81-3.62.8-.8.6-1.71,1.21-2.71l-.2-.2Zm2.92,12c-.8.91.2,2.41-1.11,3.12A24.71,24.71,0,0,1,287.57,73c-.1,2.21-1.11,3.72-1.81,5.73l.2.8c2.31-.9,1.71-3.72,2.51-5.53a5.14,5.14,0,0,0,.3-2.21c.9-.9.5-2.11,1.11-3.32.1-.7,0-1.91.9-2.31-.3-.3.2-1.21-.5-1.11Zm1.71.7a32.38,32.38,0,0,0-1.41,4.42c-.4.7.3,1.11-.4,1.61-.2,1.61-.91,3.22-.91,4.73h.1c.4-.4.8-1,.6-1.41,1-.5.1-1.61,1.21-2.11-.3-.5.3-1,.2-1.61.4-.2.6-.8,1.21-.7a.36.36,0,0,1-.1.2c.4,1.51-1.51,2.51-.7,3.92,1.41-.5,2.21-1.91,3.52-2.51.5-.91,1.71-1.31,2.21-2.31-.2-1.71-2.31-2.31-3.42-3.32-.6,0-1.11.3-1.11-.5a1.29,1.29,0,0,0-1-.4Zm15.08,2.61c.2.8-.7.5-1.11.8a3.1,3.1,0,0,0-1.51,1.71c.9.7.9,2,2,2.61.6.3.4-.6.6-.91-.6-.9.3-1.61-.1-2.51.7-.5-.4-1.21.4-1.41.4.1.2.5.4.7.3-.5.2-1.61-.7-1Z"/><path class="cls-1" d="M317.54,1.67c.3,1.31,1.61.1,2.21,1.31.3,1.21-.71,2.11-.6,3.32-1.21,1,.4,2.41-.91,3.42-.1,1.21.7,2.71-.7,3.42-.2.9,0,2.31-.6,3.22,0,.7-.6,1.11-.3,1.91a8.88,8.88,0,0,0-.7,2.81.76.76,0,0,0-.6.8.72.72,0,0,0,.6.3c-.1.2-.1.5-.3.6h-.5c.1,1-.71,2-.2,3.12a1.44,1.44,0,0,0-.2.6c1.61.1.4,1.71.8,2.51.1-.1-.8-.7-.8.1.1.6-.4,1.71.6,1.81l-.1.6a1.43,1.43,0,0,0-.6-.2.75.75,0,0,0,0,.9c2,1.81,3.92-.8,6-1,2.21-.9,4.73-1.81,7.14-2.71,1.51-.3,2.82-.6,4.32-.9.8.7,2-.6,2.81.3a3.59,3.59,0,0,0,1.81,1.41c.8.5,2.61-.7,2.71.8-1.31.5-2.61.7-3.82,1.11l-.4.3c.1.2.4.2.6.2v1.71c.6.1,1.21-.1,1.51.6.1,1.11-.91,2-1.51,2.81-2.62,2.11-4.12,4.42-6.44,6.64-.6.3-.5,1.11-.91,1.61a19.49,19.49,0,0,0-5.73,6.44c-2.21,1.51-3.42,3.82-5.13,5.63-.4.6-1.21.91-1.51,1.41-.8,1.41-2.81,2.31-2.71,4.12.2.3.6.3,1.11.2,1.31-1.51,3.12-2.41,4.42-3.82.5-1.81,2.82-1.71,3.22-3.52.7-.6,1.51-1.41,2.21-2.11.2-.1.2.1.3.2-.7,1.41-2.31,2.31-2.92,3.82-1.91.9-2.31,3.32-4.22,4.22-1.21,1.91-3.32,2.92-4.32,4.93a8.07,8.07,0,0,0-.1,3.12c-.4,1.11.6,2.21-.2,3.22.8,1.51-.2,3.22.2,4.73.1,2.71.2,4.83.2,7.54.1,2.11.6,3.82.4,5.73.5,1.41.3,3.12,1.31,4.32.5,1.81-2.41.6-2.21,2.31.7,1.11-1.21.8-.7,1.91-.3,0-.4.2-.7.1l-.1,1.21c-.6-.1-1.51.3-1.61-.4.3-1.81-1.21-3.12-1.21-4.83-1-1.81-.3-4.52-2.31-5.83a21.2,21.2,0,0,0-1.11-5.93,36.66,36.66,0,0,0-3.92-10,1.17,1.17,0,0,0-1,0c-.8,1-1.81,1.51-2.41,2.61-1.11.4-1.81,1.81-3,1.61-.7,1.21-2.21,1.81-3.22,2.61a1.83,1.83,0,0,1-1.31,1c-.8,1-2,1.61-2,2.92,0,.7.5,1.11.2,1.81-1.61.91-.8,2.61-1.11,4-.4.2-1.41.5-1.61-.3-.1-1.41.7-2.92.4-4.52-.5-.3-1.11.4-1.61.6-1.11,1.11-2.21,2.41-2.31,3.82.1.5.8,1,.4,1.51-.6.2-.8.8-1.31,1-.3.2-.2.5-.6.3-.5-.9-1.11.3-1.71.1-1,0-2.11-.4-2.61.7-1,1.21-3.12.3-3.52,2-.91.8-1.31,2.61-2.72,2.51-.9-1.21,1.11-2,1.41-2.92-.1-.2-.1-.4-.3-.4-1.61-.2-1.61,3.12-3.22,1.51-.1-.6.71-1.11.71-1.71-2.11,1.51-2.72,3.92-4.73,5.33-.6.1-1-.1-1-.7.3-.91,1.21-1.51,1.71-2.31a26.19,26.19,0,0,1,5.43-5.13c.71-1.11,2.21-1.11,2.92-2.41.6-2.11,2.51-3.82,2.92-6.23.7-.4.6-1.21.91-1.71a42.14,42.14,0,0,0,2.41-6.23A16.16,16.16,0,0,0,280.94,71c1-2,1.41-4,2.31-6.13.1-.6-.7-.8-1.11-1.21-3.32-.3-6.54.7-9.65.2-1.91-.4-3.72-.8-5.13-2.41a10.4,10.4,0,0,1,.2-3c1.31-1.31,2.21-2.71,3.62-3.92-.3-.3-1.21-.5-.8-1.11.7-1.61,2.21-1.51,3.32-2.72,1.11-.1,2.11-1.41,3.32-1.41.8-1,2.31-.6,3.12-1.71a3.35,3.35,0,0,0,2.11-1.11c1.51-.8,3.12-1,4.73-1.71,1.11-1.21,3-1.51,4.42-2.31.2-.3,0-.91.5-1.11.4-2.31,1.41-4.32,1.71-6.64.7-.6.1-1.81,1.11-2.41.4-2.11,1-4.22,1.51-6.23.91-1.91,1.31-3.92,2.11-5.83-.1-.6.5-1.11.9-1.71A16.4,16.4,0,0,1,302,12.23c-.4-.8.4-1.11.5-1.71l1.71-3.62c.8-.7,1.41-2.21,2.71-1.91.3.2.71.7.2,1-1.71.7-2.41,2.82-2.92,4.52-1.71,1.51-1.91,3.72-2.92,5.63-.1.5-.8.6-.8,1.21.3.7-.3,1.21-.6,1.71-.3,2-1.61,3.62-1.81,5.63S296.12,28,296.12,30c-1.21,2.21-1.51,4.63-2.51,6.94a4.86,4.86,0,0,0-.3,2.41,25.8,25.8,0,0,0,1.81-3.32,18.56,18.56,0,0,1,1.51-3.52c.5-.3.4-.8.6-1.31A58.81,58.81,0,0,1,300,25.61c3.32-6,6.74-12.07,10.06-18.1l.1-.5c1.41-2,2.41-4.12,3.72-6.23L315,.27c1,.1,1.51,1.11,2.51,1.41Z"/><path class="cls-1" d="M308.89,22.59a7,7,0,0,1-.3,2c-.1,1,.2,2.31-.2,3.12-1,.4-.2,1.81-.7,2.61.2.2.1.7.6.6a2.56,2.56,0,0,0-.2,2.41c-.7.7-.2,1.91-.2,2.71a6.13,6.13,0,0,0,1.31-.3c.2-2,.2-3.82.4-5.63-.2-2.71.5-5.13.2-7.54.1-.91-.9-.5-.9,0Z"/><path class="cls-1" d="M306.58,28.62a6.92,6.92,0,0,0-1,1.91c.1,1.41-.7,2.51-1.11,3.72,0,1.41-1.11,2.31-1.21,3.72a.45.45,0,0,0,.5,0c1.11-.5,2.51-.7,3.22-1.91-1-1.61.5-2.92-.2-4.42a4.51,4.51,0,0,0-.2-3Z"/><path class="cls-1" d="M332.72,32.54A32.48,32.48,0,0,0,327,35.16c-2,.2-3.32,2.21-5.33,2.71-1.41,1.31-3.22,1.71-4.73,2.61a2.35,2.35,0,0,0-2,1c-1.31-.4-.5,1.11-1.11,1.61.2.5.7.8.91,1.21-.2.3-.5.3-.7.5-.4.2-.1.8.3,1,.5.6-.2,1.21-.5,1.71,0,1.21-.8,2.51-.3,3.82a4.51,4.51,0,0,0,0,2.31l.91-.4c4.12-4.73,8-9.55,12.57-13.88,2-2.51,4.73-3.92,6.74-6.74l-1-.1Z"/><path class="cls-1" d="M323.77,34.45c-.6,1-2,.1-2.31,1.21a1.33,1.33,0,0,0,1.21-.2c.4-.7,1.61-.4,2.21-.91a5.06,5.06,0,0,0,1.41-1,25.18,25.18,0,0,0-2.51.9Z"/><path class="cls-1" d="M318.24,38c-1,.7-2.41.4-3,1.51a17.47,17.47,0,0,0,3.92-1.11,1,1,0,0,0-.91-.4Z"/><path class="cls-1" d="M306.48,42.8c-.8.3-1.71.8-1.81,1.51A2.5,2.5,0,0,0,306.88,43c-.1-.2-.4-.2-.4-.2Z"/><path class="cls-1" d="M308.49,44.21c-.3.2-1.11.2-.7.91-.6.7.3,1.11.1,1.91-.1.3-.1.8-.5.8-.1-.5-.5-1.51,0-2.11-.3,0-.3-.5-.5-.7-2.61.5-4.72,2.11-7,3.42-1,1.41-1.11,3.12-1.91,4.63-.5,1.51-1,3-1.61,4.42-.2,0-.4.1-.5-.1s.2-.4.3-.7c-.3-.91,1-1.11.5-2,1.41-.8-.6-1.91.6-2.82,0-.8,1.31-1.31.6-2.21l-.9.6c-.71,2.61-2.62,4.73-2.62,7.54-1.11,1-.2,2.71-1.41,3.62,0,.4,0,1,.5,1.11a1,1,0,0,0,1.31-.4,1.19,1.19,0,0,1,.1.8,13.71,13.71,0,0,0,4.12,2.82c.3.8,1.41.9,1.61,1.71a53,53,0,0,0,7.24-7v-.7c.7-1.11.1-2.41,0-3.42a2.86,2.86,0,0,0,.1-1.81c.6-1.61.2-3.72.6-5.33a3.87,3.87,0,0,1,.1-2.82c-.1-.7.3-1.61-.1-2.11Z"/><path class="cls-1" d="M303.56,44.31a11.12,11.12,0,0,0-3.22,1.81c.6.8.9-.5,1.71-.3.6-.6,1.71-.6,2.11-1.41l-.6-.1Z"/><path class="cls-1" d="M287.37,53.05c-1.51.7-3,1.21-4.42,2-2.21,1.61-5.23,2.21-7.14,4.42l.2.1c2.51.2,5.63-.3,8.55,0,1.31-.8,1.31-2.41,1.81-3.62.8-.8.6-1.71,1.21-2.71l-.2-.2Z"/><path class="cls-1" d="M290.29,65c-.8.91.2,2.41-1.11,3.12A24.71,24.71,0,0,1,287.57,73c-.1,2.21-1.11,3.72-1.81,5.73l.2.8c2.31-.9,1.71-3.72,2.51-5.53a5.14,5.14,0,0,0,.3-2.21c.9-.9.5-2.11,1.11-3.32.1-.7,0-1.91.9-2.31-.3-.3.2-1.21-.5-1.11Z"/><path class="cls-1" d="M292,65.72a32.38,32.38,0,0,0-1.41,4.42c-.4.7.3,1.11-.4,1.61-.2,1.61-.91,3.22-.91,4.73h.1c.4-.4.8-1,.6-1.41,1-.5.1-1.61,1.21-2.11-.3-.5.3-1,.2-1.61.4-.2.6-.8,1.21-.7a.36.36,0,0,1-.1.2c.4,1.51-1.51,2.51-.7,3.92,1.41-.5,2.21-1.91,3.52-2.51.5-.91,1.71-1.31,2.21-2.31-.2-1.71-2.31-2.31-3.42-3.32-.6,0-1.11.3-1.11-.5a1.29,1.29,0,0,0-1-.4Z"/><path class="cls-1" d="M307.08,68.34c.2.8-.7.5-1.11.8a3.1,3.1,0,0,0-1.51,1.71c.9.7.9,2,2,2.61.6.3.4-.6.6-.91-.6-.9.3-1.61-.1-2.51.7-.5-.4-1.21.4-1.41.4.1.2.5.4.7.3-.5.2-1.61-.7-1Z"/><path class="cls-4" d="M70.07,69.18a1.39,1.39,0,0,1,.12.7c0,.85-5.12,7.79-19.47,7.79-12,0-22.71-6-32.45-6-1.87,0-7.11.25-9.73,1.45l-1.62-.65c2.62-.65,5.37-2.25,13.85-2.25,10,0,23.59,4,34.07,4C64.58,74.22,65.46,71.48,70.07,69.18ZM41.87,35c21-.3,34.57,8.63,33.57,18.67C74.19,63.14,60,70,41,70c-21.59,0-33.45-8-33.32-17.77C7.92,42.73,22.77,35.24,41.87,35ZM17.41,52C16.91,59.9,25,68.28,41.25,68.08c18-.2,23.84-7.39,24.59-14.77C66.46,45.22,59.47,37,42,36.84,25.65,36.69,18,44.23,17.41,52Z"/><path class="cls-4" d="M70.61,35.94s3.74,0,6.12,0H90.2c3.62,0,6.24,0,6.24,0v.65s-1,0-2.25.15a11.88,11.88,0,0,0-3.87.5,5.62,5.62,0,0,0-2.5,1.25c-.62.7-.62,2-.62,3.19V59.9c0,4.44,7.24,7.24,17.47,7.24,10.86,0,19.09-4.14,19.09-7.09V41.48a4.89,4.89,0,0,0-1-2.9,4.37,4.37,0,0,0-2.25-1.35,12.46,12.46,0,0,0-3.87-.55,13.67,13.67,0,0,0-1.62-.2v-.55s4,0,6.49,0h10.11c2.37,0,4.24,0,4.24,0v.5s-1,.1-2.12.25a13,13,0,0,0-3.49.6c-.75.4-2,.7-2.25,1.55a11.26,11.26,0,0,0-.5,2.15V58.7c0,3.14-5,11-24.84,11-13.6,0-24.09-4.79-24.09-10.13V40.13a3.48,3.48,0,0,0-.25-1.65,5.1,5.1,0,0,0-2.5-1.3,13.65,13.65,0,0,0-3.87-.6c-1-.05-1.62-.1-1.62-.1Z"/><path class="cls-4" d="M131.87,36h51.29v8.78l-.37-.15a21.46,21.46,0,0,0-16.22-7.34S161.7,37,158.7,37c-3.37,0-8.86.25-8.86.25v13h7.49c15.23-.5,10-5.49,13.85-6.59.37-.1.75,0,1.12-.1V58.15a2.44,2.44,0,0,0-1.12,0c-3.49-1.4,1.87-6.19-13.6-6.69h-7.74V67.19a50.33,50.33,0,0,0,10.48.65c14.73,0,24.71-3.94,29.58-8.88A7.57,7.57,0,0,0,192,59c-4.37,4.69-7.11,7.24-8.36,10.38h-52v-.7c1.25-.1,2.87-.1,3.62-.2a12.9,12.9,0,0,0,3-.55,5.29,5.29,0,0,0,2.12-1.25A2,2,0,0,0,141,65V39.48a1.94,1.94,0,0,0-.75-1.55,6.7,6.7,0,0,0-2-.65,27.44,27.44,0,0,0-4-.55c-2.75-.25-2.37-.15-2.37-.15Z"/><path class="cls-4" d="M205.46,35.09c10.23,0,9.36,1.75,19.84,1.75v8.58c-.5-.35-7.49-8.78-19.84-8.78-1.87,0-11.86.6-11.86,5.29,0,7.24,35.57,7.39,35.57,18.77,0,4.74-7.74,9.48-19.34,9.48-3.87,0-15.85-1.6-18-1.6,0,0-.87.45-3.37,0L184.12,57.7l1.25-.2c5.87,4.79,11.23,10.93,25.46,10.93,7.49,0,10.86-3.49,10.86-6.49,0-8.33-35.07-8.73-35.07-18.27C186.61,38.29,194.22,35.09,205.46,35.09Z"/><path class="cls-4" d="M227.51,36h50.92l1.25,9v1.15c-5.24-1.2,1.5-5-15-8.33h-7.49v27.4c0,2.75,3.75,3.49,9.61,3.64v.5s-4.62-.1-7.49-.1c-4,0-9.11,0-13.35,0-4,0-7,.15-7,.15v-.55c7-.35,9.49-.75,9.49-3.1V37.79H241c-16.1,2.84-8.11,7-14.73,8.19A67.18,67.18,0,0,0,227.51,36Z"/><path class="cls-4" d="M366.45,35.49c15.85,0,22.59,5,22.59,10,0,6.14-10.73,7.54-13.85,8.43.87.6,7.24,6.74,16,11.28,6.74,3.49,8.74,3.39,12.36,3.69a.77.77,0,0,0,0,.55h-17c-2-1.75-7.49-5.59-10.48-7.69-2.12-1.5-5.74-4.39-6.86-5.34-1.5-2-7.24-2.45-12.61-2.94V64.19a3.37,3.37,0,0,0,.62,2.45,6.86,6.86,0,0,0,3.12,1.45c1.25.25,2.75.35,4.37.5,1.25.1,2.5.15,3.75.25v.6s-3.87-.1-8.74-.1c-4.24,0-9.11,0-13.1,0-3.12,0-8.11.05-8.11.05v-.6c1.12,0,2.25-.15,3.37-.25a17,17,0,0,0,2.87-.4c1.25-.35,3-.8,3.12-1.8a14.22,14.22,0,0,0,.25-2.54V41.58c0-4.64-4.87-4.59-10.11-5.24v-.85C346,36.29,352.59,35.49,366.45,35.49ZM356.59,38V51.36a41.63,41.63,0,0,0,9.36.85c11.73,0,13.48-5.54,13.48-7.24,0-3.89-5.37-7.64-14.35-7.64C360.33,37.34,358.46,37.94,356.59,38Z"/><path class="cls-4" d="M416,36.44s2.77,0,4.67,0c4,.05,9.16.05,12.78,0,2.5,0,4.61,0,4.61,0l-.23.55c-1,.15-2,.2-2.82.3a15.77,15.77,0,0,0-3.31.75,6,6,0,0,0-2.16,1.6,6.48,6.48,0,0,0-.58,1.15L418.74,65.34a2.64,2.64,0,0,0-.23,2,3.47,3.47,0,0,0,1.2.95,15.58,15.58,0,0,0,2.13.65,19.41,19.41,0,0,0,3,.35l-.25.6c-2.18,0-3.65-.1-5.75-.1-3.69,0-8.57,0-12.16,0-2.7,0-3,.15-4.66.15l.27-.65c.94-.1,2.18-.2,2.82-.3a13.43,13.43,0,0,0,2.9-.5,7,7,0,0,0,2.74-1.8,7.39,7.39,0,0,0,1-1.8l10.06-24.21a2.65,2.65,0,0,0,.38-1.15c0-.7-.18-1-.68-1.25a8.93,8.93,0,0,0-3.28-1c-.84-.15-1.75-.1-2.59-.25Z"/><path class="cls-4" d="M439.6,36.44s2.77,0,4.67,0c4,.05,9.16.05,12.78,0,2.5,0,4.61,0,4.61,0l-.23.55c-1,.15-2,.2-2.82.3a15.73,15.73,0,0,0-3.31.75,6,6,0,0,0-2.16,1.6,6.41,6.41,0,0,0-.58,1.15L442.36,65.34a2.63,2.63,0,0,0-.23,2,3.46,3.46,0,0,0,1.2.95,15.47,15.47,0,0,0,2.13.65,19.41,19.41,0,0,0,3,.35l-.25.6c-2.18,0-3.65-.1-5.75-.1-3.69,0-8.57,0-12.16,0-2.7,0-3,.15-4.66.15l.27-.65c.94-.1,2.18-.2,2.82-.3a13.42,13.42,0,0,0,2.9-.5,7,7,0,0,0,2.74-1.8,7.48,7.48,0,0,0,1-1.8l10.06-24.21a2.66,2.66,0,0,0,.38-1.15c0-.7-.18-1-.68-1.25a8.94,8.94,0,0,0-3.28-1c-.84-.15-1.76-.1-2.59-.25Z"/><path class="cls-4" d="M463.22,36.44s2.77,0,4.67,0c4,.05,9.17.05,12.78,0,2.5,0,4.61,0,4.61,0l-.23.55c-1,.15-2,.2-2.82.3a15.73,15.73,0,0,0-3.31.75,6,6,0,0,0-2.16,1.6,6.43,6.43,0,0,0-.58,1.15L466,65.34a2.63,2.63,0,0,0-.23,2,3.47,3.47,0,0,0,1.2.95,15.52,15.52,0,0,0,2.13.65,19.42,19.42,0,0,0,3,.35l-.25.6c-2.18,0-3.65-.1-5.75-.1-3.69,0-8.57,0-12.16,0-2.7,0-3,.15-4.66.15l.27-.65c.94-.1,2.18-.2,2.82-.3a13.43,13.43,0,0,0,2.9-.5,7,7,0,0,0,2.74-1.8,7.42,7.42,0,0,0,1-1.8l10.06-24.21a2.65,2.65,0,0,0,.38-1.15c0-.7-.18-1-.68-1.25a8.93,8.93,0,0,0-3.28-1c-.84-.15-1.76-.1-2.59-.25Z"/></g></svg>